# xmcd
#
# Track frame offsets: 
#        150
#        13352
#        26652
#        41692
#        52112
#        64442
#        79012
#        94070
#        107797
#        120697
#        133472
#        147115
#        158377
#        171587
#        185045
#        199067
#        213200
#        227725
#
# Disc length: 3207 seconds
#
# Revision: 1
# Processed by: cddbd v1.5.2PL0 Copyright (c) Steve Scherf et al.
# Submitted via: ExactAudioCopy v0.95b4
#
DISCID=0d0c8512
DTITLE=Various Artist - Old-Time Mountain Guitar: Vintage Recordings 1926-193
DTITLE=1
DYEAR=1998
DGENRE=Old-Timey
TTITLE0=Roy Harvey and Leonard Copeland - Lonesome Weary Blues [1929]
TTITLE1=Sam McGee - Buck Dancer's Choice [1926]
TTITLE2=Roy Harvey and Jess Johnson - Guitar Rag [1930]
TTITLE3=David Fletcher and Gwen Foster - Charlotte Hot-Step [1929]
TTITLE4=David Miller - Jailhouse Rag [1931]
TTITLE5=Frank Hutchison - Logan County Blues [1927]
TTITLE6=Roy Harvey and Leonard Copeland - Greasy Wagon [1930]
TTITLE7=Melvin Dupree - Augusta Rag [1929]
TTITLE8=Sam McGee - The Franklin Blues [1926]
TTITLE9=South Georgia Highballers - Blue Grass Twist [1927]
TTITLE10=Lowe Stokes and His North Georgians - Take Me to the Land of Ja
TTITLE10=zz [1928]
TTITLE11=David Fletcher and Gwen Foster - Red Rose Rag [1929]
TTITLE12=Roy Harvey and Leonard Copeland - Back to the Blue Ridge [1930]
TTITLE13=Johnnie Crockett and Albert Crockett - Fresno Blues [1929]
TTITLE14=Roy Harvey and Jess Johnson - Jefferson Street Rag [1930]
TTITLE15=Melvin Dupree and Frank Locklear - Norfolk Flip [1929]
TTITLE16=John Dilleshaw and the String Marvel - Spanish Fandango [1929]
TTITLE17=Bayless Rose - Jamestown Exhibition [1930]
EXTD=CD: County Records CO-CD-3512 (1998-05-19), UPC 009001351227.
EXTT0=
EXTT1=Spoken comments by Uncle Dave Macon.
EXTT2=
EXTT3=
EXTT4=
EXTT5=
EXTT6=
EXTT7=
EXTT8=Spoken comments by Uncle Dave Macon.
EXTT9=
EXTT10=
EXTT11=
EXTT12=
EXTT13=
EXTT14=
EXTT15=
EXTT16=
EXTT17=
PLAYORDER=
